<svg xmlns="http://www.w3.org/2000/svg" width="20" height="20" viewBox="0 0 20 20">
  <g id="Grupo_532" data-name="Grupo 532" transform="translate(-827 -51)">
    <g id="Grupo_531" data-name="Grupo 531" transform="translate(65.939 -123.599)">
      <g id="Grupo_518" data-name="Grupo 518">
        <path id="Trazado_203" data-name="Trazado 203" d="M762.987,178.7c-.056.076-.111.154-.165.232l3.116,3.117H761.39c-.074.28-.134.566-.184.856h5.986Z" fill="#fff"/>
        <path id="Trazado_204" data-name="Trazado 204" d="M765.1,192.631c.076.057.154.111.232.165l2.923-2.923V194.2c.281.082.567.153.857.21v-5.79Z" fill="#fff"/>
        <path id="Trazado_205" data-name="Trazado 205" d="M761.282,186.7c.062.29.136.576.222.856h4.433l-2.948,2.948a9.965,9.965,0,0,0,1.063,1.23l5.034-5.034Z" fill="#fff"/>
        <path id="Trazado_206" data-name="Trazado 206" d="M768.259,175v4.728l-3.158-3.159a9.956,9.956,0,0,0-1.22,1.073l5.235,5.235V174.79C768.826,174.847,768.54,174.918,768.259,175Z" fill="#fff"/>
      </g>
      <g id="Grupo_519" data-name="Grupo 519">
        <path id="Trazado_207" data-name="Trazado 207" d="M768.259,187.522l-.03.03h.03Z" fill="#e51d35"/>
        <path id="Trazado_208" data-name="Trazado 208" d="M769.086,186.7h.03v-.03Z" fill="#e51d35"/>
        <path id="Trazado_209" data-name="Trazado 209" d="M768.289,182.05l-.03-.03v.03Z" fill="#e51d35"/>
        <path id="Trazado_210" data-name="Trazado 210" d="M769.116,182.876v.03h.03Z" fill="#e51d35"/>
      </g>
      <g id="Grupo_520" data-name="Grupo 520">
        <path id="Trazado_211" data-name="Trazado 211" d="M770.561,174.612c.166-.008.332-.013.5-.013C770.893,174.6,770.726,174.6,770.561,174.612Z" fill="#e51d35"/>
        <path id="Trazado_212" data-name="Trazado 212" d="M771.06,194.6c-.167,0-.333,0-.5-.012C770.726,194.6,770.893,194.6,771.06,194.6Z" fill="#e51d35"/>
      </g>
      <g id="Grupo_521" data-name="Grupo 521">
        <path id="Trazado_213" data-name="Trazado 213" d="M762.822,178.933a9.948,9.948,0,0,0-1.432,3.117h4.548Z" fill="#29337a"/>
        <path id="Trazado_214" data-name="Trazado 214" d="M768.259,179.728V175a9.95,9.95,0,0,0-3.158,1.569Z" fill="#29337a"/>
        <path id="Trazado_215" data-name="Trazado 215" d="M768.259,194.2v-4.326l-2.923,2.923A9.945,9.945,0,0,0,768.259,194.2Z" fill="#29337a"/>
        <path id="Trazado_216" data-name="Trazado 216" d="M761.5,187.552a9.969,9.969,0,0,0,1.485,2.948l2.948-2.948Z" fill="#29337a"/>
      </g>
      <path id="Trazado_217" data-name="Trazado 217" d="M771.06,174.6c-.167,0-.333.005-.5.013a9.958,9.958,0,0,0-1.445.178v8.087l-5.235-5.235a10.054,10.054,0,0,0-.894,1.059l3.348,3.349.857.856h-5.986a10.012,10.012,0,0,0,.076,3.79h7.8l-5.034,5.034a9.935,9.935,0,0,0,1.052.9l4.012-4.012v5.79a10.08,10.08,0,0,0,1.445.178c.166.008.332.012.5.012h0" fill="#e51d35"/>
      <g id="Grupo_522" data-name="Grupo 522">
        <path id="Trazado_218" data-name="Trazado 218" d="M762.987,178.7c-.056.076-.111.154-.165.232l3.116,3.117H761.39c-.074.28-.134.566-.184.856h5.986Z" fill="#fff"/>
        <path id="Trazado_219" data-name="Trazado 219" d="M765.1,192.631c.076.057.154.111.232.165l2.923-2.923V194.2c.281.082.567.153.857.21v-5.79Z" fill="#fff"/>
        <path id="Trazado_220" data-name="Trazado 220" d="M761.282,186.7c.062.29.136.576.222.856h4.433l-2.948,2.948a9.965,9.965,0,0,0,1.063,1.23l5.034-5.034Z" fill="#fff"/>
        <path id="Trazado_221" data-name="Trazado 221" d="M768.259,175v4.728l-3.158-3.159a9.956,9.956,0,0,0-1.22,1.073l5.235,5.235V174.79C768.826,174.847,768.54,174.918,768.259,175Z" fill="#fff"/>
      </g>
      <g id="Grupo_523" data-name="Grupo 523">
        <path id="Trazado_222" data-name="Trazado 222" d="M768.259,187.522l-.03.03h.03Z" fill="#e51d35"/>
        <path id="Trazado_223" data-name="Trazado 223" d="M769.086,186.7h.03v-.03Z" fill="#e51d35"/>
        <path id="Trazado_224" data-name="Trazado 224" d="M768.289,182.05l-.03-.03v.03Z" fill="#e51d35"/>
        <path id="Trazado_225" data-name="Trazado 225" d="M769.116,182.876v.03h.03Z" fill="#e51d35"/>
      </g>
      <g id="Grupo_524" data-name="Grupo 524">
        <path id="Trazado_226" data-name="Trazado 226" d="M770.561,174.612c.166-.008.332-.013.5-.013C770.893,174.6,770.726,174.6,770.561,174.612Z" fill="#e51d35"/>
        <path id="Trazado_227" data-name="Trazado 227" d="M771.06,194.6c-.167,0-.333,0-.5-.012C770.726,194.6,770.893,194.6,771.06,194.6Z" fill="#e51d35"/>
      </g>
      <g id="Grupo_525" data-name="Grupo 525">
        <path id="Trazado_228" data-name="Trazado 228" d="M762.822,178.933a9.948,9.948,0,0,0-1.432,3.117h4.548Z" fill="#29337a"/>
        <path id="Trazado_229" data-name="Trazado 229" d="M768.259,179.728V175a9.95,9.95,0,0,0-3.158,1.569Z" fill="#29337a"/>
        <path id="Trazado_230" data-name="Trazado 230" d="M768.259,194.2v-4.326l-2.923,2.923A9.945,9.945,0,0,0,768.259,194.2Z" fill="#29337a"/>
        <path id="Trazado_231" data-name="Trazado 231" d="M761.5,187.552a9.969,9.969,0,0,0,1.485,2.948l2.948-2.948Z" fill="#29337a"/>
      </g>
      <g id="Grupo_526" data-name="Grupo 526">
        <path id="Trazado_232" data-name="Trazado 232" d="M774.929,182.906h5.986c-.05-.29-.11-.576-.183-.856h-4.549l3.117-3.117c-.054-.078-.11-.156-.165-.232Z" fill="#fff"/>
        <path id="Trazado_233" data-name="Trazado 233" d="M773.005,188.619v5.79c.291-.057.576-.128.857-.21v-4.326l2.923,2.923c.078-.054.156-.108.232-.165Z" fill="#fff"/>
        <path id="Trazado_234" data-name="Trazado 234" d="M780.839,186.7h-7.8l5.034,5.034a9.963,9.963,0,0,0,1.062-1.23l-2.948-2.948h4.433c.087-.28.16-.566.222-.856Z" fill="#fff"/>
        <path id="Trazado_235" data-name="Trazado 235" d="M773.005,174.79v8.087l5.235-5.235a9.96,9.96,0,0,0-1.22-1.073l-3.158,3.159V175C773.581,174.918,773.3,174.847,773.005,174.79Z" fill="#fff"/>
      </g>
      <g id="Grupo_527" data-name="Grupo 527">
        <path id="Trazado_236" data-name="Trazado 236" d="M773.862,187.552h.03l-.03-.03Z" fill="#e51d35"/>
        <path id="Trazado_237" data-name="Trazado 237" d="M773.005,186.665v.03h.03Z" fill="#e51d35"/>
        <path id="Trazado_238" data-name="Trazado 238" d="M773.862,182.05v-.03l-.029.03Z" fill="#e51d35"/>
        <path id="Trazado_239" data-name="Trazado 239" d="M772.976,182.906h.03v-.03Z" fill="#e51d35"/>
      </g>
      <g id="Grupo_528" data-name="Grupo 528">
        <path id="Trazado_240" data-name="Trazado 240" d="M771.061,174.6c.167,0,.333.005.5.013C771.4,174.6,771.229,174.6,771.061,174.6Z" fill="#e51d35"/>
        <path id="Trazado_241" data-name="Trazado 241" d="M771.56,194.587c-.166.008-.332.012-.5.012C771.229,194.6,771.4,194.6,771.56,194.587Z" fill="#e51d35"/>
      </g>
      <g id="Grupo_529" data-name="Grupo 529">
        <path id="Trazado_242" data-name="Trazado 242" d="M779.3,178.933a9.993,9.993,0,0,1,1.432,3.117h-4.549Z" fill="#29337a"/>
        <path id="Trazado_243" data-name="Trazado 243" d="M773.862,179.728V175a9.951,9.951,0,0,1,3.158,1.569Z" fill="#29337a"/>
        <path id="Trazado_244" data-name="Trazado 244" d="M773.862,194.2v-4.326l2.923,2.923A9.933,9.933,0,0,1,773.862,194.2Z" fill="#29337a"/>
        <path id="Trazado_245" data-name="Trazado 245" d="M780.617,187.552a9.946,9.946,0,0,1-1.485,2.948l-2.948-2.948Z" fill="#29337a"/>
      </g>
      <g id="Grupo_530" data-name="Grupo 530">
        <path id="Trazado_246" data-name="Trazado 246" d="M771.06,194.6h0Z" fill="#e51d35"/>
        <path id="Trazado_247" data-name="Trazado 247" d="M781.061,184.6a10.056,10.056,0,0,0-.146-1.693h-5.986l.857-.856,3.349-3.349a10.056,10.056,0,0,0-.9-1.059l-5.235,5.235V174.79a9.943,9.943,0,0,0-1.445-.178c-.083,0-.292-.008-.5-.01v0l-.146,0-.353,0v.013h0a9.958,9.958,0,0,0-1.445.178v8.087l-5.235-5.235a10.054,10.054,0,0,0-.894,1.059l3.348,3.349.857.856h-5.986a10.012,10.012,0,0,0,.076,3.79h7.8l-5.034,5.034a9.935,9.935,0,0,0,1.052.9l4.012-4.012v5.79a10.08,10.08,0,0,0,1.445.178h0v.012h.5q.249,0,.5-.012a10.082,10.082,0,0,0,1.445-.178v-5.79l4.012,4.012a9.94,9.94,0,0,0,1.052-.9l-5.034-5.034h7.8A10.062,10.062,0,0,0,781.061,184.6Z" fill="#e51d35"/>
        <path id="Trazado_248" data-name="Trazado 248" d="M771.062,194.6Z" fill="#e51d35"/>
      </g>
    </g>
  </g>
</svg>
